# Blender 4.2.1 LTS
# www.blender.org
mtllib ParticleTaco.mtl
o Mesh_35
v -0.146946 -0.132410 0.144852
v -0.002094 -0.183108 0.195551
v -0.002094 0.012443 0.260734
v -0.197645 0.012443 0.195551
v 0.142759 -0.132410 0.144852
v 0.193457 0.012443 0.195551
v 0.142759 0.157295 0.144852
v -0.002094 0.207993 0.195551
v -0.146946 0.157295 0.144852
v -0.002094 0.273177 0.000000
v -0.197645 0.207993 0.000000
v 0.193457 0.207993 0.000000
v 0.142759 0.157295 -0.144852
v -0.002094 0.207993 -0.195551
v -0.146946 0.157295 -0.144852
v -0.002094 0.012443 -0.260734
v -0.197645 0.012443 -0.195551
v 0.193457 0.012443 -0.195551
v 0.142759 -0.132410 -0.144852
v -0.002094 -0.183108 -0.195551
v -0.146946 -0.132410 -0.144852
v -0.002094 -0.248292 0.000000
v -0.197645 -0.183108 0.000000
v 0.193457 -0.183108 0.000000
v 0.142759 -0.132410 0.144852
v -0.002094 -0.183108 0.195551
v -0.146946 -0.132410 0.144852
v 0.193457 -0.183108 0.000000
v 0.258640 0.012443 0.000000
v 0.142759 -0.132410 -0.144852
v 0.193457 0.012443 -0.195551
v 0.142759 0.157295 -0.144852
v 0.193457 0.207993 0.000000
v -0.146946 -0.132410 -0.144852
v -0.197645 -0.183108 0.000000
v -0.262828 0.012443 0.000000
v -0.197645 0.012443 -0.195551
v -0.197645 0.207993 0.000000
v -0.146946 0.157295 -0.144852
vn -0.5774 -0.5770 0.5776
vn -0.0000 -0.7071 0.7071
vn -0.0000 -0.0000 1.0000
vn -0.7071 -0.0000 0.7071
vn 0.5776 -0.5770 0.5774
vn 0.7071 -0.0000 0.7071
vn 0.5773 0.5773 0.5774
vn -0.0000 0.7071 0.7071
vn -0.5773 0.5774 0.5773
vn -0.0000 1.0000 -0.0000
vn -0.7071 0.7071 -0.0000
vn 0.7071 0.7071 -0.0000
vn 0.5771 0.5776 -0.5774
vn -0.0000 0.7071 -0.7071
vn -0.5771 0.5773 -0.5776
vn -0.0000 -0.0000 -1.0000
vn -0.7071 -0.0000 -0.7071
vn 0.7071 -0.0000 -0.7071
vn 0.5771 -0.5773 -0.5776
vn -0.0000 -0.7071 -0.7071
vn -0.5771 -0.5776 -0.5774
vn -0.0000 -1.0000 -0.0000
vn -0.7071 -0.7071 -0.0000
vn 0.7071 -0.7071 -0.0000
vn 0.5774 -0.5774 0.5773
vn -0.5772 -0.5776 0.5772
vn 1.0000 -0.0000 -0.0000
vn 0.5776 -0.5772 -0.5772
vn 0.5774 0.5773 -0.5774
vn -0.5774 -0.5773 -0.5774
vn -1.0000 -0.0000 -0.0000
vn -0.5776 0.5772 -0.5772
vt 0.513214 0.432021
vt 0.515325 0.421656
vt 0.496101 0.422042
vt 0.513983 0.441661
vt 0.615652 0.268541
vt 0.557494 0.301331
vt 0.541810 0.289707
vt 0.596429 0.268927
vt 0.583952 0.196967
vt 0.602176 0.286162
vt 0.586312 0.260839
vt 0.623488 0.286162
vt 0.613541 0.296949
vt 0.596429 0.286972
vt 0.584869 0.268217
vt 0.589071 0.276790
vt 0.575116 0.286972
vt 0.604697 0.286744
vt 0.602169 0.304290
vt 0.510322 0.415700
vt 0.500381 0.426405
vt 0.471710 0.379626
vt 0.483269 0.416427
vt 0.471709 0.397671
vt 0.589071 0.294834
vt 0.575116 0.305017
vt 0.524100 0.322516
vt 0.538054 0.312333
vt 0.553680 0.322288
vt 0.551153 0.339830
vt 0.510322 0.433741
vt 0.500381 0.444449
vt 0.483284 0.434578
vt 0.471710 0.415716
vt 0.538054 0.330378
vt 0.497223 0.424289
vt 0.524114 0.189449
vt 0.538054 0.179161
vt 0.544921 0.198488
vt 0.543323 0.207002
vt 0.512541 0.170588
vt 0.544441 0.179692
vt 0.481999 0.289898
vt 0.512864 0.268056
vt 0.472691 0.339144
vt 0.491021 0.298920
vt 0.473912 0.229102
vt 0.544832 0.266056
vt 0.462093 0.361014
vt 0.517572 0.362682
vt 0.519091 0.418012
vt 0.463762 0.416494
vt 0.513214 0.450065
vt 0.478292 0.323385
vt 0.476774 0.268056
vt 0.492611 0.445634
vt 0.463497 0.442983
s 1
usemtl Material.001
f 1/1/1 2/2/2 3/3/3
f 3/3/3 4/4/4 1/1/1
f 2/5/2 5/6/5 6/7/6
f 6/7/6 3/8/3 2/5/2
f 3/8/3 6/7/6 7/9/7
f 7/9/7 8/10/8 3/8/3
f 4/11/4 3/8/3 8/12/8
f 8/12/8 9/13/9 4/11/4
f 9/13/9 8/12/8 10/14/10
f 10/14/10 11/15/11 9/13/9
f 8/10/8 7/9/7 12/16/12
f 12/16/12 10/17/10 8/10/8
f 10/17/10 12/16/12 13/18/13
f 13/18/13 14/19/14 10/17/10
f 11/15/11 10/17/10 14/19/14
f 14/20/14 15/21/15 11/22/11
f 15/21/15 14/20/14 16/23/16
f 16/23/16 17/24/17 15/21/15
f 14/19/14 13/18/13 18/25/18
f 18/25/18 16/26/16 14/19/14
f 16/27/16 18/28/18 19/29/19
f 19/29/19 20/30/20 16/27/16
f 17/24/17 16/23/16 20/31/20
f 20/31/20 21/32/21 17/24/17
f 21/32/21 20/31/20 22/33/22
f 22/33/22 23/34/23 21/32/21
f 20/30/20 19/29/19 24/35/24
f 24/36/24 22/33/22 20/31/20
f 22/37/22 24/38/24 25/39/25
f 25/39/25 26/40/2 22/37/22
f 23/41/23 22/37/22 26/40/2
f 26/40/2 27/42/26 23/41/23
f 5/6/5 28/43/24 29/44/27
f 29/44/27 6/7/6 5/6/5
f 28/43/24 30/45/28 31/46/18
f 31/46/18 29/44/27 28/43/24
f 29/44/27 31/46/18 32/47/29
f 32/47/29 33/48/12 29/44/27
f 6/7/6 29/44/27 33/48/12
f 33/48/12 7/9/7 6/7/6
f 34/49/30 35/50/23 36/51/31
f 36/51/31 37/52/17 34/49/30
f 35/50/23 1/1/1 4/4/4
f 4/4/4 36/51/31 35/50/23
f 36/51/31 4/4/4 9/53/9
f 9/13/9 38/54/11 36/55/31
f 37/52/17 36/51/31 38/56/11
f 38/56/11 39/57/32 37/52/17
