# Blender 4.2.1 LTS
# www.blender.org
mtllib ParticleTacoM.mtl
o Mesh_35
v -0.153031 -0.153031 0.153031
v -0.090947 -0.180326 0.180325
v -0.133072 -0.133072 0.311443
v -0.180326 -0.090947 0.180325
v 0.000000 -0.193289 0.193288
v 0.000000 -0.142982 0.334094
v 0.000000 -0.000000 0.358160
v -0.142981 -0.000000 0.334094
v -0.193288 -0.000000 0.193288
v 0.090947 -0.180326 0.180325
v 0.133071 -0.133072 0.311443
v 0.153031 -0.153031 0.153031
v 0.180325 -0.090947 0.180325
v 0.193288 -0.000000 0.193288
v 0.142981 -0.000000 0.334094
v 0.133071 0.133071 0.311443
v 0.000000 0.142981 0.334094
v 0.180325 0.090946 0.180325
v 0.153031 0.153030 0.153031
v 0.090947 0.180325 0.180325
v 0.000000 0.193288 0.193288
v -0.133072 0.133071 0.311443
v -0.180326 0.090946 0.180325
v -0.090947 0.180325 0.180325
v -0.153031 0.153030 0.153031
v -0.133072 0.311443 0.133071
v -0.180326 0.180325 0.090947
v 0.000000 0.334094 0.142981
v 0.000000 0.358160 0.000000
v -0.142981 0.334094 0.000000
v -0.193288 0.193288 0.000000
v 0.133071 0.311443 0.133071
v 0.180325 0.180325 0.090947
v 0.193288 0.193288 0.000000
v 0.142981 0.334094 0.000000
v 0.133071 0.311443 -0.133071
v 0.000000 0.334094 -0.142981
v 0.180325 0.180325 -0.090947
v 0.153031 0.153030 -0.153031
v 0.090947 0.180325 -0.180325
v 0.000000 0.193288 -0.193288
v -0.133072 0.311443 -0.133071
v -0.180326 0.180325 -0.090947
v -0.090947 0.180325 -0.180325
v -0.153031 0.153030 -0.153031
v -0.133072 0.133071 -0.311443
v -0.180326 0.090946 -0.180325
v 0.000000 0.142981 -0.334094
v 0.000000 -0.000000 -0.358160
v -0.142981 -0.000000 -0.334094
v -0.193288 -0.000000 -0.193288
v 0.133071 0.133071 -0.311443
v 0.180325 0.090946 -0.180325
v 0.193288 -0.000000 -0.193288
v 0.142981 -0.000000 -0.334094
v 0.133071 -0.133072 -0.311443
v 0.000000 -0.142982 -0.334094
v 0.180325 -0.090947 -0.180325
v 0.153031 -0.153031 -0.153031
v 0.090947 -0.180326 -0.180325
v 0.000000 -0.193289 -0.193288
v -0.133072 -0.133072 -0.311443
v -0.180326 -0.090947 -0.180325
v -0.090947 -0.180326 -0.180325
v -0.153031 -0.153031 -0.153031
v -0.133072 -0.311444 -0.133071
v -0.180326 -0.180326 -0.090947
v 0.000000 -0.334094 -0.142981
v 0.000000 -0.358160 0.000000
v -0.142981 -0.334094 0.000000
v -0.193288 -0.193289 0.000000
v 0.133071 -0.311444 -0.133071
v 0.180325 -0.180326 -0.090947
v 0.193288 -0.193289 0.000000
v 0.142981 -0.334094 0.000000
v 0.133071 -0.311444 0.133071
v 0.000000 -0.334094 0.142981
v 0.180325 -0.180326 0.090947
v 0.153031 -0.153031 0.153031
v 0.090947 -0.180326 0.180325
v 0.000000 -0.193289 0.193288
v -0.133072 -0.311444 0.133071
v -0.180326 -0.180326 0.090947
v -0.090947 -0.180326 0.180325
v -0.153031 -0.153031 0.153031
v 0.180325 -0.180326 0.090947
v 0.311443 -0.133072 0.133071
v 0.193288 -0.193289 0.000000
v 0.334094 -0.142982 0.000000
v 0.358160 -0.000000 0.000000
v 0.334094 -0.000000 0.142981
v 0.180325 -0.180326 -0.090947
v 0.311443 -0.133072 -0.133071
v 0.153031 -0.153031 -0.153031
v 0.180325 -0.090947 -0.180325
v 0.193288 -0.000000 -0.193288
v 0.334094 -0.000000 -0.142981
v 0.311443 0.133071 -0.133071
v 0.334094 0.142981 0.000000
v 0.180325 0.090946 -0.180325
v 0.153031 0.153030 -0.153031
v 0.180325 0.180325 -0.090947
v 0.193288 0.193288 0.000000
v 0.311443 0.133071 0.133071
v 0.180325 0.180325 0.090947
v -0.153031 -0.153031 -0.153031
v -0.180326 -0.180326 -0.090947
v -0.311443 -0.133072 -0.133071
v -0.180326 -0.090947 -0.180325
v -0.193288 -0.193289 0.000000
v -0.334094 -0.142982 0.000000
v -0.358160 -0.000000 0.000000
v -0.334094 -0.000000 -0.142981
v -0.193288 -0.000000 -0.193288
v -0.180326 -0.180326 0.090947
v -0.311443 -0.133072 0.133071
v -0.334094 -0.000000 0.142981
v -0.311443 0.133071 0.133071
v -0.334094 0.142981 0.000000
v -0.180326 0.180325 0.090947
v -0.193288 0.193288 0.000000
v -0.311443 0.133071 -0.133071
v -0.180326 0.090946 -0.180325
v -0.180326 0.180325 -0.090947
v -0.153031 0.153030 -0.153031
vn -0.5775 -0.5774 0.5771
vn -0.3910 -0.6508 0.6508
vn -0.5218 -0.5218 0.6749
vn -0.6508 -0.3910 0.6508
vn -0.0000 -0.7071 0.7071
vn -0.0000 -0.6016 0.7988
vn -0.0000 -0.0000 1.0000
vn -0.6016 -0.0000 0.7988
vn -0.7071 -0.0000 0.7071
vn 0.3909 -0.6508 0.6508
vn 0.5218 -0.5217 0.6750
vn 0.5771 -0.5774 0.5775
vn 0.6508 -0.3910 0.6508
vn 0.7071 -0.0000 0.7071
vn 0.6016 -0.0000 0.7988
vn 0.5218 0.5218 0.6749
vn -0.0000 0.6016 0.7988
vn 0.6508 0.3910 0.6508
vn 0.5776 0.5774 0.5771
vn 0.3910 0.6508 0.6508
vn -0.0000 0.7071 0.7071
vn -0.5217 0.5218 0.6750
vn -0.6508 0.3909 0.6508
vn -0.3910 0.6508 0.6508
vn -0.5772 0.5772 0.5776
vn -0.5218 0.6749 0.5218
vn -0.6508 0.6508 0.3909
vn -0.0000 0.7988 0.6016
vn -0.0000 1.0000 -0.0000
vn -0.6016 0.7988 -0.0000
vn -0.7071 0.7071 -0.0000
vn 0.5218 0.6749 0.5218
vn 0.6508 0.6508 0.3910
vn 0.7071 0.7071 -0.0000
vn 0.6016 0.7988 -0.0000
vn 0.5218 0.6749 -0.5218
vn -0.0000 0.7988 -0.6016
vn 0.6508 0.6508 -0.3909
vn 0.5774 0.5771 -0.5775
vn 0.3910 0.6508 -0.6508
vn -0.0000 0.7071 -0.7071
vn -0.5218 0.6749 -0.5218
vn -0.6508 0.6508 -0.3910
vn -0.3910 0.6508 -0.6508
vn -0.5774 0.5775 -0.5771
vn -0.5218 0.5218 -0.6749
vn -0.6508 0.3909 -0.6508
vn -0.0000 0.6016 -0.7988
vn -0.0000 -0.0000 -1.0000
vn -0.6016 -0.0000 -0.7988
vn -0.7071 -0.0000 -0.7071
vn 0.5218 0.5218 -0.6749
vn 0.6508 0.3910 -0.6508
vn 0.7071 -0.0000 -0.7071
vn 0.6016 -0.0000 -0.7988
vn 0.5218 -0.5218 -0.6749
vn -0.0000 -0.6016 -0.7988
vn 0.6508 -0.3909 -0.6508
vn 0.5774 -0.5775 -0.5771
vn 0.3910 -0.6508 -0.6508
vn -0.0000 -0.7071 -0.7071
vn -0.5218 -0.5218 -0.6749
vn -0.6508 -0.3910 -0.6508
vn -0.3910 -0.6508 -0.6508
vn -0.5774 -0.5771 -0.5776
vn -0.5218 -0.6749 -0.5218
vn -0.6508 -0.6508 -0.3909
vn -0.0000 -0.7988 -0.6016
vn -0.0000 -1.0000 -0.0000
vn -0.6016 -0.7988 -0.0000
vn -0.7071 -0.7071 -0.0000
vn 0.5218 -0.6750 -0.5217
vn 0.6508 -0.6508 -0.3910
vn 0.7071 -0.7071 -0.0000
vn 0.6016 -0.7988 -0.0000
vn 0.5218 -0.6749 0.5218
vn -0.0000 -0.7988 0.6016
vn 0.6508 -0.6508 0.3909
vn 0.5772 -0.5773 0.5775
vn 0.3910 -0.6508 0.6508
vn -0.5218 -0.6749 0.5218
vn -0.6509 -0.6508 0.3910
vn -0.3909 -0.6508 0.6508
vn -0.5772 -0.5776 0.5772
vn 0.6508 -0.6508 0.3910
vn 0.6749 -0.5218 0.5218
vn 0.7988 -0.6016 -0.0000
vn 1.0000 -0.0000 -0.0000
vn 0.7988 -0.0000 0.6016
vn 0.6508 -0.6508 -0.3909
vn 0.6749 -0.5218 -0.5218
vn 0.5776 -0.5772 -0.5772
vn 0.6508 -0.3910 -0.6508
vn 0.7988 -0.0000 -0.6016
vn 0.6749 0.5218 -0.5218
vn 0.7988 0.6016 -0.0000
vn 0.6508 0.3909 -0.6508
vn 0.5773 0.5775 -0.5772
vn 0.6508 0.6508 -0.3910
vn 0.6749 0.5218 0.5218
vn 0.6508 0.6508 0.3909
vn -0.5773 -0.5775 -0.5772
vn -0.6508 -0.6508 -0.3910
vn -0.6750 -0.5217 -0.5217
vn -0.6508 -0.3909 -0.6508
vn -0.7988 -0.6016 -0.0000
vn -1.0000 -0.0000 -0.0000
vn -0.7988 -0.0000 -0.6016
vn -0.6508 -0.6508 0.3909
vn -0.6750 -0.5217 0.5218
vn -0.7988 -0.0000 0.6016
vn -0.6750 0.5217 0.5217
vn -0.7988 0.6016 -0.0000
vn -0.6508 0.6508 0.3910
vn -0.6750 0.5218 -0.5217
vn -0.6508 0.3910 -0.6508
vn -0.6508 0.6509 -0.3909
vn -0.5776 0.5772 -0.5772
vt 0.413468 0.439855
vt 0.417979 0.439855
vt 0.417979 0.444367
vt 0.413468 0.444367
vt 0.422490 0.439855
vt 0.422490 0.444367
vt 0.490308 0.263544
vt 0.494819 0.263544
vt 0.494819 0.268056
vt 0.490308 0.268056
vt 0.417979 0.448878
vt 0.413468 0.448878
vt 0.427001 0.439855
vt 0.427001 0.444367
vt 0.499330 0.259033
vt 0.503841 0.259033
vt 0.503841 0.263544
vt 0.499330 0.263544
vt 0.503841 0.268056
vt 0.499330 0.268056
vt 0.499330 0.272567
vt 0.494819 0.272567
vt 0.503841 0.272567
vt 0.503841 0.277078
vt 0.499330 0.277078
vt 0.494819 0.277078
vt 0.417979 0.453389
vt 0.413468 0.453389
vt 0.490308 0.272567
vt 0.490308 0.277078
vt 0.417979 0.457900
vt 0.413468 0.457900
vt 0.417979 0.462411
vt 0.413468 0.462411
vt 0.494819 0.281589
vt 0.490308 0.281589
vt 0.494819 0.286101
vt 0.490308 0.286101
vt 0.417979 0.466923
vt 0.413468 0.466923
vt 0.499330 0.281589
vt 0.503841 0.281589
vt 0.503841 0.286101
vt 0.499330 0.286101
vt 0.499330 0.290612
vt 0.494819 0.290612
vt 0.503841 0.290612
vt 0.503841 0.295123
vt 0.499330 0.295123
vt 0.422490 0.471434
vt 0.427001 0.471434
vt 0.427001 0.475945
vt 0.422490 0.475945
vt 0.417979 0.471434
vt 0.413468 0.471434
vt 0.490308 0.290612
vt 0.417979 0.475945
vt 0.413468 0.475945
vt 0.417979 0.480456
vt 0.413468 0.480456
vt 0.490308 0.295123
vt 0.494819 0.295123
vt 0.494819 0.299634
vt 0.490308 0.299634
vt 0.422490 0.480456
vt 0.422490 0.484968
vt 0.417979 0.484968
vt 0.413468 0.484968
vt 0.499330 0.299634
vt 0.503841 0.299634
vt 0.503841 0.304146
vt 0.499330 0.304146
vt 0.427001 0.480456
vt 0.427001 0.484968
vt 0.427001 0.489479
vt 0.422490 0.489479
vt 0.503841 0.308657
vt 0.499330 0.308657
vt 0.503841 0.313168
vt 0.431512 0.493990
vt 0.427001 0.493990
vt 0.422490 0.493990
vt 0.417979 0.489479
vt 0.413468 0.489479
vt 0.417979 0.493990
vt 0.413468 0.493990
vt 0.417979 0.498501
vt 0.413468 0.498501
vt 0.422490 0.498501
vt 0.422490 0.503013
vt 0.417979 0.503013
vt 0.413468 0.503013
vt 0.427001 0.498501
vt 0.431512 0.498501
vt 0.503841 0.317679
vt 0.499330 0.317679
vt 0.499330 0.313168
vt 0.503841 0.322191
vt 0.499330 0.322191
vt 0.427001 0.503013
vt 0.427001 0.507524
vt 0.422490 0.507524
vt 0.503841 0.326702
vt 0.499330 0.326702
vt 0.503841 0.331213
vt 0.499330 0.331213
vt 0.494819 0.326702
vt 0.494819 0.331213
vt 0.417979 0.507524
vt 0.413468 0.507524
vt 0.490308 0.326702
vt 0.490308 0.331213
vt 0.417979 0.512035
vt 0.413468 0.512035
vt 0.431512 0.439855
vt 0.436024 0.439855
vt 0.436024 0.444367
vt 0.508353 0.263544
vt 0.440535 0.439855
vt 0.440535 0.444367
vt 0.512864 0.263544
vt 0.512864 0.268056
vt 0.508353 0.268056
vt 0.445046 0.439855
vt 0.445046 0.444367
vt 0.449557 0.439855
vt 0.449557 0.444367
vt 0.449557 0.448878
vt 0.445046 0.448878
vt 0.517375 0.263544
vt 0.517375 0.268056
vt 0.517375 0.272567
vt 0.512864 0.272567
vt 0.449557 0.453389
vt 0.445046 0.453389
vt 0.449557 0.457900
vt 0.521886 0.277078
vt 0.517375 0.277078
vt 0.512864 0.277078
vt 0.508353 0.272567
vt 0.508353 0.277078
vt 0.395423 0.439855
vt 0.399934 0.439855
vt 0.399934 0.444367
vt 0.395423 0.444367
vt 0.404445 0.439855
vt 0.404445 0.444367
vt 0.404445 0.448878
vt 0.399934 0.448878
vt 0.395423 0.448878
vt 0.408956 0.439855
vt 0.408956 0.444367
vt 0.408956 0.448878
vt 0.408956 0.453389
vt 0.404445 0.453389
vt 0.481285 0.272567
vt 0.485796 0.272567
vt 0.485796 0.277078
vt 0.481285 0.277078
vt 0.476774 0.272567
vt 0.408956 0.457900
vt 0.404445 0.457900
vt 0.399934 0.453389
vt 0.395423 0.453389
vt 0.399934 0.457900
vt 0.395423 0.457900
s 1
usemtl Material.001
f 1/1/1 2/2/2 3/3/3
f 3/3/3 4/4/4 1/1/1
f 2/2/2 5/5/5 6/6/6
f 6/6/6 3/3/3 2/2/2
f 3/7/3 6/8/6 7/9/7
f 7/9/7 8/10/8 3/7/3
f 4/4/4 3/3/3 8/11/8
f 8/11/8 9/12/9 4/4/4
f 5/5/5 10/13/10 11/14/11
f 11/14/11 6/6/6 5/5/5
f 10/15/10 12/16/12 13/17/13
f 13/17/13 11/18/11 10/15/10
f 11/18/11 13/17/13 14/19/14
f 14/19/14 15/20/15 11/18/11
f 6/8/6 11/18/11 15/20/15
f 15/20/15 7/9/7 6/8/6
f 7/9/7 15/20/15 16/21/16
f 16/21/16 17/22/17 7/9/7
f 15/20/15 14/19/14 18/23/18
f 18/23/18 16/21/16 15/20/15
f 16/21/16 18/23/18 19/24/19
f 19/24/19 20/25/20 16/21/16
f 17/22/17 16/21/16 20/25/20
f 20/25/20 21/26/21 17/22/17
f 9/12/9 8/11/8 22/27/22
f 22/27/22 23/28/23 9/12/9
f 8/10/8 7/9/7 17/22/17
f 17/22/17 22/29/22 8/10/8
f 22/29/22 17/22/17 21/26/21
f 21/26/21 24/30/24 22/29/22
f 23/28/23 22/27/22 24/31/24
f 24/31/24 25/32/25 23/28/23
f 25/32/25 24/31/24 26/33/26
f 26/33/26 27/34/27 25/32/25
f 24/30/24 21/26/21 28/35/28
f 28/35/28 26/36/26 24/30/24
f 26/36/26 28/35/28 29/37/29
f 29/37/29 30/38/30 26/36/26
f 27/34/27 26/33/26 30/39/30
f 30/39/30 31/40/31 27/34/27
f 21/26/21 20/25/20 32/41/32
f 32/41/32 28/35/28 21/26/21
f 20/25/20 19/24/19 33/42/33
f 33/42/33 32/41/32 20/25/20
f 32/41/32 33/42/33 34/43/34
f 34/43/34 35/44/35 32/41/32
f 28/35/28 32/41/32 35/44/35
f 35/44/35 29/37/29 28/35/28
f 29/37/29 35/44/35 36/45/36
f 36/45/36 37/46/37 29/37/29
f 35/44/35 34/43/34 38/47/38
f 38/47/38 36/45/36 35/44/35
f 36/45/36 38/47/38 39/48/39
f 39/48/39 40/49/40 36/45/36
f 37/50/37 36/51/36 40/52/40
f 40/52/40 41/53/41 37/50/37
f 31/40/31 30/39/30 42/54/42
f 42/54/42 43/55/43 31/40/31
f 30/38/30 29/37/29 37/46/37
f 37/46/37 42/56/42 30/38/30
f 42/54/42 37/50/37 41/53/41
f 41/53/41 44/57/44 42/54/42
f 43/55/43 42/54/42 44/57/44
f 44/57/44 45/58/45 43/55/43
f 45/58/45 44/57/44 46/59/46
f 46/59/46 47/60/47 45/58/45
f 44/61/44 41/62/41 48/63/48
f 48/63/48 46/64/46 44/61/44
f 46/59/46 48/65/48 49/66/49
f 49/66/49 50/67/50 46/59/46
f 47/60/47 46/59/46 50/67/50
f 50/67/50 51/68/51 47/60/47
f 41/62/41 40/49/40 52/69/52
f 52/69/52 48/63/48 41/62/41
f 40/49/40 39/48/39 53/70/53
f 53/70/53 52/69/52 40/49/40
f 52/69/52 53/70/53 54/71/54
f 54/71/54 55/72/55 52/69/52
f 48/65/48 52/73/52 55/74/55
f 55/74/55 49/66/49 48/65/48
f 49/66/49 55/74/55 56/75/56
f 56/75/56 57/76/57 49/66/49
f 55/72/55 54/71/54 58/77/58
f 58/77/58 56/78/56 55/72/55
f 56/78/56 58/77/58 59/79/59
f 59/80/59 60/81/60 56/75/56
f 57/76/57 56/75/56 60/81/60
f 60/81/60 61/82/61 57/76/57
f 51/68/51 50/67/50 62/83/62
f 62/83/62 63/84/63 51/68/51
f 50/67/50 49/66/49 57/76/57
f 57/76/57 62/83/62 50/67/50
f 62/83/62 57/76/57 61/82/61
f 61/82/61 64/85/64 62/83/62
f 63/84/63 62/83/62 64/85/64
f 64/85/64 65/86/65 63/84/63
f 65/86/65 64/85/64 66/87/66
f 66/87/66 67/88/67 65/86/65
f 64/85/64 61/82/61 68/89/68
f 68/89/68 66/87/66 64/85/64
f 66/87/66 68/89/68 69/90/69
f 69/90/69 70/91/70 66/87/66
f 67/88/67 66/87/66 70/91/70
f 70/91/70 71/92/71 67/88/67
f 61/82/61 60/81/60 72/93/72
f 72/93/72 68/89/68 61/82/61
f 60/81/60 59/80/59 73/94/73
f 73/95/73 72/96/72 60/97/60
f 72/96/72 73/95/73 74/98/74
f 74/98/74 75/99/75 72/96/72
f 68/89/68 72/93/72 75/100/75
f 75/100/75 69/90/69 68/89/68
f 69/90/69 75/100/75 76/101/76
f 76/101/76 77/102/77 69/90/69
f 75/99/75 74/98/74 78/103/78
f 78/103/78 76/104/76 75/99/75
f 76/104/76 78/103/78 79/105/79
f 79/105/79 80/106/80 76/104/76
f 77/107/77 76/104/76 80/106/80
f 80/106/80 81/108/5 77/107/77
f 71/92/71 70/91/70 82/109/81
f 82/109/81 83/110/82 71/92/71
f 70/91/70 69/90/69 77/102/77
f 77/102/77 82/109/81 70/91/70
f 82/111/81 77/107/77 81/108/5
f 81/108/5 84/112/83 82/111/81
f 83/110/82 82/109/81 84/113/83
f 84/113/83 85/114/84 83/110/82
f 12/115/12 86/116/85 87/117/86
f 87/118/86 13/17/13 12/16/12
f 86/116/85 88/119/74 89/120/87
f 89/120/87 87/117/86 86/116/85
f 87/118/86 89/121/87 90/122/88
f 90/122/88 91/123/89 87/118/86
f 13/17/13 87/118/86 91/123/89
f 91/123/89 14/19/14 13/17/13
f 88/119/74 92/124/90 93/125/91
f 93/125/91 89/120/87 88/119/74
f 92/124/90 94/126/92 95/127/93
f 95/127/93 93/125/91 92/124/90
f 93/125/91 95/127/93 96/128/54
f 96/128/54 97/129/94 93/125/91
f 89/121/87 93/130/91 97/131/94
f 97/131/94 90/122/88 89/121/87
f 90/122/88 97/131/94 98/132/95
f 98/132/95 99/133/96 90/122/88
f 97/129/94 96/128/54 100/134/97
f 100/134/97 98/135/95 97/129/94
f 98/135/95 100/134/97 101/136/98
f 101/137/98 102/138/99 98/132/95
f 99/133/96 98/132/95 102/138/99
f 102/138/99 103/139/34 99/133/96
f 14/19/14 91/123/89 104/140/100
f 104/140/100 18/23/18 14/19/14
f 91/123/89 90/122/88 99/133/96
f 99/133/96 104/140/100 91/123/89
f 104/140/100 99/133/96 103/139/34
f 103/139/34 105/141/101 104/140/100
f 18/23/18 104/140/100 105/141/101
f 105/141/101 19/24/19 18/23/18
f 106/142/102 107/143/103 108/144/104
f 108/144/104 109/145/105 106/142/102
f 107/143/103 110/146/71 111/147/106
f 111/147/106 108/144/104 107/143/103
f 108/144/104 111/147/106 112/148/107
f 112/148/107 113/149/108 108/144/104
f 109/145/105 108/144/104 113/149/108
f 113/149/108 114/150/51 109/145/105
f 110/146/71 115/151/109 116/152/110
f 116/152/110 111/147/106 110/146/71
f 115/151/109 1/1/1 4/4/4
f 4/4/4 116/152/110 115/151/109
f 116/152/110 4/4/4 9/12/9
f 9/12/9 117/153/111 116/152/110
f 111/147/106 116/152/110 117/153/111
f 117/153/111 112/148/107 111/147/106
f 112/148/107 117/153/111 118/154/112
f 118/154/112 119/155/113 112/148/107
f 117/153/111 9/12/9 23/28/23
f 23/28/23 118/154/112 117/153/111
f 118/156/112 23/157/23 25/158/25
f 25/158/25 120/159/114 118/156/112
f 119/160/113 118/156/112 120/159/114
f 120/161/114 121/162/31 119/155/113
f 114/150/51 113/149/108 122/163/115
f 122/163/115 123/164/116 114/150/51
f 113/149/108 112/148/107 119/155/113
f 119/155/113 122/163/115 113/149/108
f 122/163/115 119/155/113 121/162/31
f 121/162/31 124/165/117 122/163/115
f 123/164/116 122/163/115 124/165/117
f 124/165/117 125/166/118 123/164/116
